<?xml version="1.0" encoding="UTF-8" standalone="no"?>
<svg
   xmlns:dc="http://purl.org/dc/elements/1.1/"
   xmlns:cc="http://creativecommons.org/ns#"
   xmlns:rdf="http://www.w3.org/1999/02/22-rdf-syntax-ns#"
   xmlns:svg="http://www.w3.org/2000/svg"
   xmlns="http://www.w3.org/2000/svg"
   viewBox="0 0 434.64532 283.46533"
   height="283.46533"
   width="434.64532"
   xml:space="preserve"
   id="svg2"
   version="1.1"><metadata
     id="metadata8"><rdf:RDF><cc:Work
         rdf:about=""><dc:format>image/svg+xml</dc:format><dc:type
           rdf:resource="http://purl.org/dc/dcmitype/StillImage" /></cc:Work></rdf:RDF></metadata><defs
     id="defs6"><clipPath
       id="clipPath18"
       clipPathUnits="userSpaceOnUse"><path
         id="path16"
         d="M 0,212.599 H 325.984 V 0 H 0 Z" /></clipPath><clipPath
       id="clipPath134"
       clipPathUnits="userSpaceOnUse"><path
         id="path132"
         d="m 130.322,159.413 h 61.884 V 98.5283 h -61.884 z" /></clipPath></defs><g
     transform="matrix(1.3333333,0,0,-1.3333333,0,283.46533)"
     id="g10"><g
       id="g12"><g
         clip-path="url(#clipPath18)"
         id="g14"><g
           transform="translate(136.6587,24.0986)"
           id="g20"><path
             id="path22"
             style="fill:#ffffff;fill-opacity:1;fill-rule:nonzero;stroke:none"
             d="m 0,0 c -13,10.25 -30.5,24 -78,28 l 34.75,94.751 c -12.5,-1.75 -22.5,-12.25 -26.5,-23.143 -4,-10.892 -26,-80.358 -26,-80.358 0,0 49.25,6 95.75,-19.25" /></g><g
           transform="translate(136.6587,24.0986)"
           id="g24"><path
             id="path26"
             style="fill:none;stroke:#399a9a;stroke-width:1;stroke-linecap:butt;stroke-linejoin:miter;stroke-miterlimit:10;stroke-dasharray:none;stroke-opacity:1"
             d="m 0,0 c -13,10.25 -30.5,24 -78,28 l 34.75,94.751 c -12.5,-1.75 -22.5,-12.25 -26.5,-23.143 -4,-10.892 -26,-80.358 -26,-80.358 0,0 49.25,6 95.75,-19.25 z" /></g><g
           transform="translate(140.9087,27.0986)"
           id="g28"><path
             id="path30"
             style="fill:#ffa45b;fill-opacity:1;fill-rule:nonzero;stroke:none"
             d="m 0,0 c -5,7 -10.25,24.75 -49.25,38.25 l 34.5,96.001 c -12.25,-1.75 -22.5,-13 -26.5,-25.75 -4,-12.75 -24.5,-75.251 -24.5,-75.251 C -57.5,32 -28.337,29.043 0,0" /></g><g
           transform="translate(316.7368,19.3408)"
           id="g32"><path
             id="path34"
             style="fill:#a3e4db;fill-opacity:1;fill-rule:nonzero;stroke:none"
             d="m 0,0 c 0,0 -17.912,64.758 -22.412,80.758 -4.5,16.001 -15,25.249 -27,27.5 l 31,-93.666 c -53.67,4.152 -98.85,-9.201 -113.325,-16.895 -4.132,8.166 -12.593,13.561 -22.008,13.561 -9.416,0 -17.876,-5.395 -22.008,-13.561 -14.475,7.694 -59.655,21.047 -113.325,16.895 l 31,93.666 c -12,-2.251 -22.5,-11.499 -27,-27.5 C -289.578,64.758 -307.49,0 -307.49,0 c 24.842,3.221 74.394,9.838 129.966,-6.838 -0.004,-0.014 -0.009,-0.027 -0.013,-0.041 l 1.935,-0.529 h 0.001 l 1.922,-0.528 c 2.45,8.946 10.647,15.194 19.934,15.194 9.286,0 17.483,-6.248 19.934,-15.194 l 1.922,0.528 1.936,0.529 c -0.004,0.014 -0.01,0.027 -0.013,0.041 C -74.395,9.838 -24.842,3.221 0,0" /></g><g
           transform="translate(316.7368,19.3408)"
           id="g36"><path
             id="path38"
             style="fill:none;stroke:#399a9a;stroke-width:1;stroke-linecap:butt;stroke-linejoin:miter;stroke-miterlimit:10;stroke-dasharray:none;stroke-opacity:1"
             d="m 0,0 c 0,0 -17.912,64.758 -22.412,80.758 -4.5,16.001 -15,25.249 -27,27.5 l 31,-93.666 c -53.67,4.152 -98.85,-9.201 -113.325,-16.895 -4.132,8.166 -12.593,13.561 -22.008,13.561 -9.416,0 -17.876,-5.395 -22.008,-13.561 -14.475,7.694 -59.655,21.047 -113.325,16.895 l 31,93.666 c -12,-2.251 -22.5,-11.499 -27,-27.5 C -289.578,64.758 -307.49,0 -307.49,0 c 24.842,3.221 74.394,9.838 129.966,-6.838 -0.004,-0.014 -0.009,-0.027 -0.013,-0.041 l 1.935,-0.529 h 0.001 l 1.922,-0.528 c 2.45,8.946 10.647,15.194 19.934,15.194 9.286,0 17.483,-6.248 19.934,-15.194 l 1.922,0.528 1.936,0.529 c -0.004,0.014 -0.01,0.027 -0.013,0.041 C -74.395,9.838 -24.842,3.221 0,0 Z" /></g><g
           transform="translate(189.3247,24.0986)"
           id="g40"><path
             id="path42"
             style="fill:#ffffff;fill-opacity:1;fill-rule:nonzero;stroke:none"
             d="m 0,0 c 46.5,25.25 95.75,19.25 95.75,19.25 0,0 -22,69.466 -26,80.358 -4,10.893 -14,21.393 -26.5,23.143 L 78,28 C 30.5,24 13,10.25 0,0" /></g><g
           transform="translate(189.3247,24.0986)"
           id="g44"><path
             id="path46"
             style="fill:none;stroke:#399a9a;stroke-width:1;stroke-linecap:butt;stroke-linejoin:miter;stroke-miterlimit:10;stroke-dasharray:none;stroke-opacity:1"
             d="m 0,0 c 46.5,25.25 95.75,19.25 95.75,19.25 0,0 -22,69.466 -26,80.358 -4,10.893 -14,21.393 -26.5,23.143 L 78,28 C 30.5,24 13,10.25 0,0 Z" /></g><g
           transform="translate(226.3247,135.5996)"
           id="g48"><path
             id="path50"
             style="fill:#ffa45b;fill-opacity:1;fill-rule:nonzero;stroke:none"
             d="M 0,0 C -4,12.75 -14.25,24 -26.5,25.75 L 8,-70.251 c -39,-13.5 -44.25,-31.25 -49.25,-38.25 28.338,29.043 57.5,32 65.75,33.25 C 24.5,-75.251 4,-12.75 0,0" /></g><g
           transform="translate(57.4878,151.7588)"
           id="g52"><path
             id="path54"
             style="fill:#399a9a;fill-opacity:1;fill-rule:nonzero;stroke:none"
             d="m 0,0 0.02,-0.04 -0.03,0.108 -4.696,23.8 3.817,1.899 L 15.345,7.632 15.434,7.504 15.355,7.711 9.459,30.914 14.161,33.252 21.601,1.222 17.253,-0.94 1.303,16.771 1.185,16.712 5.666,-6.704 1.298,-8.876 l -21.035,25.269 4.702,2.338 z" /></g><g
           transform="translate(91.249,178.2534)"
           id="g56"><path
             id="path58"
             style="fill:#399a9a;fill-opacity:1;fill-rule:nonzero;stroke:none"
             d="m 0,0 c -1.258,-0.395 -2.135,-1.22 -2.632,-2.473 -0.496,-1.254 -0.601,-2.68 -0.314,-4.279 l 0.075,-0.092 8.993,2.825 -0.164,0.524 C 5.505,-2.055 4.77,-0.997 3.75,-0.318 2.731,0.359 1.481,0.465 0,0 m 6.698,-19.269 c -3.215,-1.009 -6.105,-0.763 -8.674,0.742 -2.568,1.504 -4.37,3.904 -5.406,7.203 l -0.264,0.838 c -1.036,3.298 -0.949,6.331 0.262,9.099 1.211,2.768 3.244,4.593 6.1,5.475 3.06,0.961 5.695,0.772 7.905,-0.568 2.21,-1.341 3.804,-3.569 4.783,-6.685 l 0.942,-2.998 -14.15,-4.445 -0.009,-0.118 c 0.648,-1.77 1.638,-3.074 2.968,-3.911 1.33,-0.837 2.854,-0.985 4.574,-0.445 1.369,0.43 2.49,0.966 3.363,1.609 0.873,0.643 1.664,1.421 2.375,2.336 l 2.685,-2.827 c -0.614,-1.026 -1.546,-2.021 -2.794,-2.984 -1.248,-0.963 -2.801,-1.737 -4.66,-2.321" /></g><g
           transform="translate(121.937,171.9209)"
           id="g60"><path
             id="path62"
             style="fill:#399a9a;fill-opacity:1;fill-rule:nonzero;stroke:none"
             d="m 0,0 c -0.159,0.805 -0.637,1.404 -1.432,1.799 -0.795,0.395 -2.174,0.607 -4.136,0.636 -2.905,0.036 -5.179,0.454 -6.824,1.255 -1.645,0.801 -2.652,2.136 -3.023,4.004 -0.388,1.953 0.107,3.785 1.486,5.492 1.379,1.707 3.419,2.829 6.12,3.365 2.845,0.564 5.243,0.312 7.195,-0.757 1.952,-1.068 3.097,-2.645 3.436,-4.728 L 2.805,10.928 -2.217,9.932 c -0.191,0.963 -0.721,1.716 -1.591,2.26 -0.87,0.545 -1.944,0.69 -3.223,0.436 C -8.295,12.377 -9.202,11.902 -9.75,11.204 -10.298,10.505 -10.491,9.746 -10.329,8.927 -10.166,8.108 -9.724,7.52 -9.004,7.163 -8.283,6.805 -6.931,6.629 -4.945,6.635 -1.895,6.613 0.448,6.193 2.081,5.375 3.714,4.557 4.719,3.199 5.096,1.303 5.512,-0.795 4.984,-2.67 3.512,-4.321 2.04,-5.972 -0.111,-7.078 -2.941,-7.64 c -3.032,-0.602 -5.579,-0.3 -7.64,0.904 -2.061,1.203 -3.247,2.819 -3.56,4.848 l 0.017,0.138 4.871,0.967 c 0.325,-1.34 1.009,-2.227 2.052,-2.662 1.042,-0.435 2.223,-0.522 3.546,-0.26 1.35,0.268 2.341,0.734 2.971,1.396 C -0.054,-1.646 0.174,-0.876 0,0" /></g><g
           transform="translate(135.8301,197.144)"
           id="g64"><path
             id="path66"
             style="fill:#399a9a;fill-opacity:1;fill-rule:nonzero;stroke:none"
             d="m 0,0 0.638,-5.743 4.237,0.471 0.437,-3.932 -4.237,-0.47 1.45,-13.059 c 0.109,-0.976 0.397,-1.648 0.866,-2.016 0.468,-0.368 1.051,-0.513 1.75,-0.436 0.291,0.033 0.572,0.09 0.843,0.172 0.271,0.081 0.526,0.18 0.764,0.294 l 0.999,-3.823 c -0.424,-0.298 -0.941,-0.551 -1.552,-0.759 -0.611,-0.208 -1.251,-0.349 -1.92,-0.423 -1.951,-0.217 -3.544,0.184 -4.776,1.204 -1.234,1.02 -1.987,2.753 -2.258,5.199 l -1.451,13.06 -3.603,-0.401 -0.437,3.932 3.604,0.399 -0.639,5.744 z" /></g><g
           transform="translate(167.1118,182.7993)"
           id="g68"><path
             id="path70"
             style="fill:#399a9a;fill-opacity:1;fill-rule:nonzero;stroke:none"
             d="m 0,0 -14.015,-0.32 0.311,-13.642 -5.338,-0.121 -0.73,31.983 21.593,0.494 0.098,-4.284 -16.256,-0.371 0.224,-9.776 14.014,0.321 z" /></g><g
           transform="translate(185.2144,187.0718)"
           id="g72"><path
             id="path74"
             style="fill:#399a9a;fill-opacity:1;fill-rule:nonzero;stroke:none"
             d="m 0,0 -2.275,0.227 c -1.039,0.064 -1.918,-0.103 -2.64,-0.499 -0.722,-0.396 -1.297,-0.985 -1.726,-1.766 l -1.006,-16.493 -5.33,0.325 1.449,23.731 4.869,-0.297 0.14,-3.465 c 0.673,1.176 1.503,2.08 2.488,2.71 0.985,0.629 2.092,0.906 3.32,0.832 C -0.39,5.285 -0.092,5.241 0.184,5.173 0.458,5.104 0.71,5.027 0.939,4.939 Z" /></g><g
           transform="translate(199.5142,186.2593)"
           id="g76"><path
             id="path78"
             style="fill:#399a9a;fill-opacity:1;fill-rule:nonzero;stroke:none"
             d="m 0,0 c -1.305,0.191 -2.453,-0.171 -3.445,-1.084 -0.993,-0.914 -1.706,-2.153 -2.142,-3.718 l 0.027,-0.115 9.328,-1.362 0.08,0.544 C 4.065,-4.243 3.862,-2.97 3.239,-1.916 2.616,-0.863 1.536,-0.224 0,0 m -2.338,-20.265 c -3.334,0.487 -5.831,1.965 -7.49,4.435 -1.66,2.471 -2.24,5.416 -1.741,8.837 l 0.127,0.87 c 0.5,3.42 1.895,6.114 4.189,8.081 C -4.96,3.926 -2.336,4.686 0.619,4.24 3.793,3.776 6.084,2.461 7.492,0.294 8.9,-1.874 9.369,-4.573 8.896,-7.805 l -0.454,-3.11 -14.675,2.144 -0.059,-0.103 c -0.186,-1.876 0.139,-3.48 0.974,-4.812 0.834,-1.331 2.142,-2.127 3.925,-2.387 1.42,-0.208 2.664,-0.212 3.729,-0.012 1.065,0.2 2.117,0.557 3.154,1.072 l 1.191,-3.712 C 5.682,-19.383 4.41,-19.875 2.868,-20.2 1.325,-20.525 -0.41,-20.547 -2.338,-20.265" /></g><g
           transform="translate(220.5581,186.1816)"
           id="g80"><path
             id="path82"
             style="fill:#399a9a;fill-opacity:1;fill-rule:nonzero;stroke:none"
             d="m 0,0 -0.567,-3.394 c 1.057,0.98 2.243,1.651 3.556,2.013 1.313,0.361 2.685,0.355 4.116,-0.018 2.396,-0.625 4.074,-1.839 5.035,-3.641 0.96,-1.803 1.039,-4.242 0.236,-7.317 l -3.772,-14.458 -5.166,1.348 3.761,14.415 C 7.65,-9.323 7.612,-8 7.088,-7.083 6.563,-6.167 5.569,-5.518 4.109,-5.137 3.103,-4.874 2.145,-4.863 1.234,-5.102 0.324,-5.341 -0.487,-5.785 -1.201,-6.431 l -4.354,-16.69 -5.167,1.348 6.001,23.004 z" /></g><g
           transform="translate(244.1431,157.8652)"
           id="g84"><path
             id="path86"
             style="fill:#399a9a;fill-opacity:1;fill-rule:nonzero;stroke:none"
             d="M 0,0 C 1.214,-0.475 2.376,-0.52 3.487,-0.133 4.598,0.254 5.363,0.983 5.782,2.055 L 10.284,0.293 10.276,0.155 c -0.743,-2.1 -2.284,-3.558 -4.624,-4.372 -2.34,-0.815 -4.745,-0.739 -7.214,0.227 -3.26,1.276 -5.349,3.304 -6.266,6.086 -0.917,2.78 -0.746,5.781 0.514,9.001 l 0.28,0.716 c 1.255,3.205 3.164,5.521 5.727,6.949 2.565,1.426 5.476,1.503 8.737,0.227 2.66,-1.041 4.515,-2.66 5.567,-4.857 1.052,-2.197 1.083,-4.478 0.095,-6.844 L 13.003,7.181 8.48,8.951 c 0.476,1.214 0.48,2.4 0.012,3.558 C 8.025,13.667 7.15,14.497 5.868,14.999 3.999,15.73 2.411,15.57 1.104,14.519 -0.205,13.467 -1.259,11.92 -2.058,9.876 L -2.338,9.162 C -3.153,7.077 -3.435,5.212 -3.183,3.566 -2.93,1.92 -1.869,0.731 0,0" /></g><g
           transform="translate(269.2144,165.0269)"
           id="g88"><path
             id="path90"
             style="fill:#399a9a;fill-opacity:1;fill-rule:nonzero;stroke:none"
             d="m 0,0 c 1.229,0.594 2.49,0.887 3.781,0.879 1.291,-0.007 2.54,-0.343 3.747,-1.007 2.207,-1.214 3.547,-2.858 4.021,-4.932 0.472,-2.074 -0.089,-4.562 -1.685,-7.462 l -6.977,-12.687 -4.679,2.572 6.999,12.727 c 0.903,1.642 1.23,3.01 0.978,4.101 -0.253,1.092 -1.034,1.998 -2.343,2.718 -0.911,0.501 -1.834,0.762 -2.767,0.782 -0.933,0.02 -1.821,-0.173 -2.663,-0.579 l -8.387,-15.248 -4.678,2.573 16.518,30.034 4.679,-2.573 z" /></g><g
           transform="translate(111.375,64.9365)"
           id="g92"><path
             id="path94"
             style="fill:#399a9a;fill-opacity:1;fill-rule:nonzero;stroke:none"
             d="m 0,0 c -0.693,0 -1.281,0.229 -1.761,0.688 -0.481,0.458 -0.721,1.158 -0.721,2.097 0,0.805 0.179,1.672 0.536,2.6 0.358,0.928 0.85,1.845 1.476,2.752 0.626,0.904 1.337,1.732 2.131,2.482 0.794,0.748 1.632,1.346 2.516,1.795 0.884,0.447 1.761,0.67 2.634,0.67 0.872,0 1.599,-0.229 2.181,-0.688 C 9.573,11.938 9.864,11.328 9.864,10.568 9.864,10.01 9.713,9.629 9.411,9.428 9.109,9.227 8.711,9.125 8.22,9.125 8.265,9.305 8.304,9.5 8.337,9.713 c 0.034,0.213 0.051,0.408 0.051,0.586 0,0.515 -0.123,0.957 -0.369,1.326 -0.247,0.369 -0.671,0.553 -1.275,0.553 -0.627,0 -1.264,-0.217 -1.912,-0.655 C 4.182,11.088 3.557,10.506 2.953,9.779 2.349,9.053 1.812,8.264 1.342,7.414 0.873,6.564 0.503,5.725 0.235,4.898 -0.034,4.07 -0.167,3.332 -0.167,2.684 c 0,-0.873 0.301,-1.309 0.905,-1.309 0.514,0 1.074,0.24 1.678,0.723 0.604,0.48 1.224,1.093 1.862,1.843 0.637,0.75 1.246,1.528 1.828,2.332 0.582,0.805 1.096,1.543 1.543,2.215 0.09,0.135 0.146,0.201 0.168,0.201 C 7.952,8.666 8.125,8.623 8.337,8.555 8.55,8.488 8.734,8.398 8.891,8.287 9.047,8.174 9.126,8.029 9.126,7.852 9.126,7.648 9.025,7.375 8.824,7.029 8.623,6.682 8.399,6.285 8.153,5.838 7.906,5.391 7.683,4.938 7.482,4.479 7.281,4.02 7.18,3.59 7.18,3.188 7.18,2.852 7.269,2.521 7.448,2.197 7.627,1.873 7.918,1.711 8.321,1.711 c 0.603,0 1.397,0.441 2.382,1.324 0.984,0.885 1.979,2.209 2.985,3.977 L 14.024,6.676 C 13.555,5.469 12.951,4.406 12.212,3.488 11.474,2.572 10.686,1.855 9.847,1.342 9.008,0.828 8.187,0.57 7.381,0.57 6.553,0.57 5.944,0.816 5.553,1.309 5.161,1.801 4.965,2.336 4.965,2.918 4.965,3.053 4.977,3.203 4.999,3.371 5.021,3.539 5.043,3.713 5.066,3.893 4.104,2.594 3.226,1.621 2.433,0.973 1.638,0.324 0.827,0 0,0" /></g><g
           transform="translate(127.9819,64.6338)"
           id="g96"><path
             id="path98"
             style="fill:#399a9a;fill-opacity:1;fill-rule:nonzero;stroke:none"
             d="m 0,0 c -1.074,0 -1.968,0.359 -2.684,1.074 -0.716,0.717 -1.074,1.789 -1.074,3.221 0,1.119 0.218,2.209 0.654,3.271 0.437,1.063 1.012,2.018 1.729,2.87 0.715,0.849 1.509,1.525 2.381,2.029 0.873,0.504 1.734,0.754 2.584,0.754 0.917,0 1.543,-0.268 1.879,-0.805 C 5.804,11.877 5.972,11.318 5.972,10.736 5.972,10.088 5.821,9.518 5.519,9.025 5.217,8.533 4.809,8.287 4.294,8.287 c -0.38,0 -0.704,0.168 -0.972,0.504 0.335,0.178 0.625,0.541 0.872,1.09 0.246,0.549 0.369,1.068 0.369,1.56 0,0.268 -0.05,0.475 -0.151,0.622 -0.1,0.144 -0.297,0.216 -0.587,0.216 C 3.221,12.279 2.6,12.012 1.963,11.475 1.325,10.938 0.732,10.244 0.185,9.395 -0.364,8.545 -0.811,7.65 -1.157,6.711 c -0.347,-0.94 -0.52,-1.824 -0.52,-2.65 0,-0.694 0.167,-1.332 0.503,-1.913 0.335,-0.582 0.984,-0.873 1.945,-0.873 0.895,0 1.796,0.246 2.702,0.739 0.905,0.492 1.749,1.195 2.532,2.113 0.783,0.918 1.41,1.99 1.879,3.221 L 8.321,7.012 C 7.806,5.67 7.101,4.469 6.207,3.406 5.312,2.344 4.328,1.51 3.254,0.906 2.181,0.303 1.096,0 0,0" /></g><g
           transform="translate(136.8394,64.9365)"
           id="g100"><path
             id="path102"
             style="fill:#399a9a;fill-opacity:1;fill-rule:nonzero;stroke:none"
             d="m 0,0 c -0.693,0 -1.281,0.229 -1.761,0.688 -0.481,0.458 -0.721,1.158 -0.721,2.097 0,0.805 0.179,1.672 0.536,2.6 0.358,0.928 0.85,1.845 1.476,2.752 0.626,0.904 1.337,1.732 2.131,2.482 0.794,0.748 1.632,1.346 2.516,1.795 0.884,0.447 1.761,0.67 2.634,0.67 0.872,0 1.599,-0.229 2.181,-0.688 C 9.573,11.938 9.864,11.328 9.864,10.568 9.864,10.01 9.713,9.629 9.411,9.428 9.109,9.227 8.711,9.125 8.22,9.125 8.265,9.305 8.304,9.5 8.337,9.713 c 0.034,0.213 0.051,0.408 0.051,0.586 0,0.515 -0.123,0.957 -0.369,1.326 -0.247,0.369 -0.671,0.553 -1.275,0.553 -0.627,0 -1.264,-0.217 -1.912,-0.655 C 4.182,11.088 3.557,10.506 2.953,9.779 2.349,9.053 1.812,8.264 1.342,7.414 0.873,6.564 0.503,5.725 0.235,4.898 -0.034,4.07 -0.167,3.332 -0.167,2.684 c 0,-0.873 0.301,-1.309 0.905,-1.309 0.514,0 1.074,0.24 1.678,0.723 0.604,0.48 1.224,1.093 1.862,1.843 0.637,0.75 1.246,1.528 1.828,2.332 0.582,0.805 1.096,1.543 1.543,2.215 0.09,0.135 0.146,0.201 0.168,0.201 C 7.952,8.666 8.125,8.623 8.337,8.555 8.55,8.488 8.734,8.398 8.891,8.287 9.047,8.174 9.126,8.029 9.126,7.852 9.126,7.648 9.025,7.375 8.824,7.029 8.623,6.682 8.399,6.285 8.153,5.838 7.906,5.391 7.683,4.938 7.482,4.479 7.281,4.02 7.18,3.59 7.18,3.188 7.18,2.852 7.269,2.521 7.448,2.197 7.627,1.873 7.918,1.711 8.321,1.711 c 0.603,0 1.397,0.441 2.382,1.324 0.984,0.885 1.979,2.209 2.985,3.977 L 14.024,6.676 C 13.555,5.469 12.951,4.406 12.212,3.488 11.474,2.572 10.686,1.855 9.847,1.342 9.008,0.828 8.187,0.57 7.381,0.57 6.553,0.57 5.944,0.816 5.553,1.309 5.161,1.801 4.965,2.336 4.965,2.918 4.965,3.053 4.977,3.203 4.999,3.371 5.021,3.539 5.043,3.713 5.066,3.893 4.104,2.594 3.226,1.621 2.433,0.973 1.638,0.324 0.827,0 0,0" /></g><g
           transform="translate(151.8359,65.5068)"
           id="g104"><path
             id="path106"
             style="fill:#399a9a;fill-opacity:1;fill-rule:nonzero;stroke:none"
             d="m 0,0 c -0.38,0 -0.767,0.096 -1.158,0.285 -0.391,0.19 -0.716,0.498 -0.972,0.922 -0.257,0.426 -0.386,0.963 -0.386,1.611 0,0.739 0.179,1.565 0.537,2.483 0.357,0.916 0.838,1.828 1.442,2.734 0.604,0.906 1.297,1.744 2.08,2.516 0.783,0.771 1.599,1.387 2.45,1.845 0.849,0.459 1.688,0.688 2.516,0.688 0.47,0 0.833,-0.084 1.09,-0.25 0.257,-0.168 0.386,-0.432 0.386,-0.789 0,-0.09 -0.006,-0.168 -0.017,-0.234 C 7.957,11.742 7.94,11.664 7.918,11.574 7.806,11.754 7.644,11.883 7.432,11.961 7.219,12.039 6.956,12.078 6.643,12.078 5.927,12.078 5.228,11.859 4.546,11.424 3.864,10.988 3.238,10.418 2.667,9.713 2.097,9.008 1.599,8.254 1.174,7.447 0.749,6.643 0.419,5.865 0.185,5.117 -0.05,4.367 -0.168,3.734 -0.168,3.221 -0.168,2.729 -0.056,2.336 0.168,2.047 0.391,1.756 0.682,1.609 1.04,1.609 c 0.604,0 1.336,0.381 2.198,1.141 0.861,0.762 1.739,1.834 2.633,3.223 0.895,1.386 1.7,3.007 2.416,4.863 0.492,1.299 1.001,2.617 1.526,3.959 0.526,1.344 1.057,2.635 1.594,3.877 0.537,1.24 1.056,2.348 1.56,3.32 0.504,0.973 0.985,1.744 1.444,2.315 0.457,0.57 0.866,0.855 1.223,0.855 0.179,0 0.336,-0.072 0.47,-0.217 0.135,-0.146 0.201,-0.33 0.201,-0.554 0,-0.358 -0.184,-0.967 -0.554,-1.828 -0.368,-0.862 -0.849,-1.891 -1.442,-3.086 -0.593,-1.198 -1.213,-2.5 -1.861,-3.909 -0.65,-1.41 -1.27,-2.841 -1.864,-4.295 C 9.992,9.818 9.512,8.416 9.143,7.063 8.773,5.709 8.589,4.473 8.589,3.355 8.589,2.729 8.623,2.258 8.689,1.945 8.757,1.633 8.98,1.477 9.36,1.477 c 0.47,0 1.017,0.201 1.644,0.603 0.626,0.402 1.252,0.973 1.879,1.711 0.626,0.738 1.174,1.621 1.645,2.65 L 14.93,6.139 C 14.504,4.998 13.923,3.975 13.186,3.07 12.448,2.164 11.659,1.447 10.82,0.922 9.981,0.396 9.181,0.135 8.421,0.135 7.593,0.135 7.017,0.408 6.693,0.955 6.369,1.504 6.207,2.068 6.207,2.65 6.207,3.031 6.262,3.533 6.375,4.16 6.486,4.785 6.643,5.48 6.844,6.24 6.128,5.055 5.368,3.986 4.563,3.037 3.758,2.086 2.969,1.342 2.198,0.805 1.426,0.268 0.693,0 0,0" /></g><g
           transform="translate(167.7046,70.6729)"
           id="g108"><path
             id="path110"
             style="fill:#399a9a;fill-opacity:1;fill-rule:nonzero;stroke:none"
             d="m 0,0 c 0.604,0.201 1.286,0.498 2.047,0.891 0.761,0.39 1.493,0.855 2.197,1.39 0.705,0.537 1.286,1.131 1.745,1.78 0.458,0.648 0.688,1.33 0.688,2.046 0,0.247 -0.045,0.436 -0.134,0.571 C 6.453,6.813 6.263,6.879 5.973,6.879 5.436,6.879 4.865,6.672 4.262,6.258 3.657,5.844 3.075,5.301 2.517,4.631 1.957,3.959 1.454,3.221 1.007,2.416 0.56,1.611 0.224,0.807 0,0 m 1.645,-5.637 c -1.365,0 -2.388,0.375 -3.07,1.125 -0.682,0.748 -1.023,1.672 -1.023,2.768 0,1.006 0.251,2.068 0.754,3.187 0.504,1.118 1.174,2.17 2.013,3.155 0.839,0.982 1.762,1.783 2.768,2.398 1.007,0.615 2.002,0.922 2.986,0.922 0.514,0 0.99,-0.133 1.426,-0.402 C 7.936,7.248 8.153,6.699 8.153,5.871 8.153,5.021 7.901,4.223 7.398,3.473 6.896,2.723 6.235,2.059 5.419,1.477 4.603,0.895 3.708,0.42 2.734,0.051 1.762,-0.318 0.794,-0.547 -0.167,-0.637 -0.212,-0.861 -0.246,-1.072 -0.268,-1.273 -0.29,-1.477 -0.302,-1.666 -0.302,-1.844 c 0,-0.336 0.039,-0.672 0.118,-1.008 0.079,-0.336 0.218,-0.642 0.419,-0.921 0.202,-0.282 0.475,-0.498 0.823,-0.655 0.346,-0.156 0.776,-0.234 1.291,-0.234 0.962,0 1.913,0.273 2.852,0.82 0.94,0.549 1.812,1.27 2.616,2.164 0.806,0.895 1.488,1.879 2.047,2.953 L 10.267,0.973 C 9.663,-0.369 8.896,-1.531 7.969,-2.516 7.04,-3.5 6.034,-4.266 4.949,-4.814 3.864,-5.361 2.763,-5.637 1.645,-5.637" /></g><g
           transform="translate(193.8071,65.4736)"
           id="g112"><path
             id="path114"
             style="fill:#399a9a;fill-opacity:1;fill-rule:nonzero;stroke:none"
             d="m 0,0 c -0.783,0 -1.354,0.24 -1.711,0.721 -0.358,0.48 -0.537,1.056 -0.537,1.728 0,0.559 0.084,1.117 0.252,1.678 0.168,0.559 0.336,1.105 0.503,1.643 0.168,0.537 0.252,1.017 0.252,1.443 0,0.447 -0.101,0.76 -0.302,0.939 C -1.744,8.33 -1.968,8.42 -2.214,8.42 -2.773,8.42 -3.383,7.984 -4.043,7.111 -4.702,6.24 -5.558,5.01 -6.609,3.422 -6.967,2.885 -7.27,2.342 -7.515,1.795 -7.762,1.246 -7.996,0.75 -8.22,0.301 c -0.178,0 -0.402,0.023 -0.671,0.068 -0.268,0.045 -0.508,0.117 -0.721,0.217 -0.213,0.102 -0.319,0.23 -0.319,0.387 0,0.156 0.106,0.531 0.319,1.123 0.213,0.593 0.459,1.287 0.738,2.08 0.279,0.795 0.525,1.599 0.738,2.416 0.212,0.816 0.319,1.515 0.319,2.097 0,0.379 -0.062,0.688 -0.185,0.922 -0.123,0.235 -0.341,0.354 -0.653,0.354 -0.493,0 -1.086,-0.297 -1.779,-0.891 -0.694,-0.592 -1.409,-1.369 -2.147,-2.332 -0.738,-0.961 -1.438,-2.017 -2.097,-3.17 -0.66,-1.152 -1.191,-2.299 -1.593,-3.439 -0.202,0 -0.449,0.035 -0.739,0.101 -0.29,0.067 -0.542,0.157 -0.755,0.268 -0.212,0.113 -0.318,0.225 -0.318,0.336 0,0.135 0.117,0.531 0.352,1.191 0.235,0.66 0.503,1.453 0.805,2.383 0.302,0.928 0.571,1.873 0.805,2.834 0.235,0.961 0.352,1.813 0.352,2.551 0.135,0.156 0.347,0.312 0.638,0.469 0.29,0.156 0.592,0.234 0.905,0.234 0.314,0 0.543,-0.078 0.689,-0.234 0.144,-0.157 0.218,-0.37 0.218,-0.637 0,-0.291 -0.084,-0.789 -0.252,-1.494 -0.167,-0.703 -0.374,-1.481 -0.62,-2.33 0.447,0.715 0.956,1.447 1.526,2.197 0.57,0.748 1.169,1.436 1.795,2.062 0.626,0.627 1.258,1.135 1.895,1.528 0.638,0.39 1.258,0.586 1.863,0.586 0.693,0 1.168,-0.25 1.425,-0.754 0.257,-0.504 0.386,-1.102 0.386,-1.795 0,-0.561 -0.061,-1.147 -0.184,-1.762 C -5.608,7.252 -5.748,6.682 -5.904,6.156 -6.062,5.631 -6.207,5.211 -6.341,4.898 c 0.47,0.85 0.99,1.672 1.561,2.465 0.57,0.795 1.19,1.444 1.861,1.948 0.671,0.502 1.387,0.753 2.148,0.753 0.715,0 1.212,-0.212 1.493,-0.636 C 1.001,9.002 1.141,8.498 1.141,7.918 1.141,7.336 1.04,6.697 0.839,6.006 0.638,5.311 0.431,4.641 0.219,3.992 0.006,3.344 -0.101,2.783 -0.101,2.314 c 0,-0.291 0.073,-0.552 0.219,-0.789 0.145,-0.234 0.407,-0.351 0.788,-0.351 0.626,0 1.213,0.285 1.762,0.855 0.548,0.571 1.057,1.264 1.526,2.08 0.47,0.817 0.872,1.606 1.208,2.366 L 5.805,6.006 C 5.446,5.066 4.987,4.131 4.429,3.203 3.869,2.275 3.216,1.51 2.466,0.906 1.717,0.301 0.895,0 0,0" /></g><g
           transform="translate(199.8472,58.1924)"
           id="g116"><path
             id="path118"
             style="fill:#399a9a;fill-opacity:1;fill-rule:nonzero;stroke:none"
             d="M 0,0 C 0.335,0 0.899,0.441 1.693,1.326 2.487,2.209 3.332,3.758 4.227,5.973 3.31,5.48 2.46,4.994 1.677,4.514 0.894,4.031 0.268,3.512 -0.202,2.953 -0.672,2.395 -0.906,1.744 -0.906,1.006 -0.906,0.828 -0.839,0.615 -0.705,0.369 -0.571,0.123 -0.336,0 0,0 m 0.167,-1.074 c -0.559,0 -1.052,0.152 -1.476,0.453 -0.424,0.303 -0.637,0.744 -0.637,1.326 0,0.717 0.178,1.354 0.537,1.912 0.357,0.559 0.838,1.074 1.442,1.543 0.604,0.471 1.297,0.918 2.08,1.342 0.783,0.426 1.599,0.852 2.45,1.275 0.312,0.828 0.631,1.75 0.956,2.768 0.324,1.018 0.631,2.143 0.922,3.373 C 5.726,11.754 4.959,10.754 4.143,9.914 3.326,9.076 2.46,8.656 1.543,8.656 1.118,8.656 0.698,8.752 0.285,8.941 -0.13,9.131 -0.47,9.428 -0.738,9.83 c -0.269,0.402 -0.404,0.918 -0.404,1.543 0,0.627 0.107,1.354 0.32,2.182 0.212,0.828 0.474,1.633 0.788,2.416 0.313,0.783 0.638,1.431 0.972,1.945 0.336,0.514 0.626,0.772 0.874,0.772 0.088,0 0.251,-0.034 0.486,-0.1 C 2.532,18.52 2.756,18.424 2.969,18.303 3.181,18.18 3.287,18.051 3.287,17.916 3.086,17.625 2.862,17.211 2.616,16.676 2.37,16.139 2.13,15.539 1.896,14.881 1.66,14.221 1.464,13.576 1.308,12.951 1.151,12.324 1.073,11.787 1.073,11.34 c 0,-0.402 0.089,-0.727 0.269,-0.973 0.179,-0.246 0.491,-0.369 0.939,-0.369 0.425,0 0.9,0.207 1.426,0.621 0.525,0.414 1.051,0.945 1.577,1.594 0.525,0.648 1.012,1.342 1.459,2.08 0.068,0.246 0.129,0.498 0.185,0.754 0.055,0.258 0.105,0.521 0.151,0.789 0.067,0.312 0.229,0.676 0.486,1.09 0.257,0.414 0.665,0.621 1.225,0.621 0.111,0 0.223,-0.006 0.335,-0.016 C 9.237,17.52 9.36,17.49 9.494,17.447 9.494,17.088 9.388,16.424 9.176,15.451 8.963,14.477 8.661,13.342 8.27,12.045 7.878,10.748 7.414,9.416 6.877,8.053 c 1.052,0.402 2.08,1.068 3.087,1.996 1.007,0.928 1.823,2.164 2.449,3.707 L 12.85,13.42 C 12.514,12.348 12.005,11.412 11.323,10.619 10.641,9.824 9.874,9.143 9.024,8.572 8.174,8.002 7.336,7.527 6.509,7.146 5.927,5.715 5.295,4.373 4.612,3.121 3.931,1.867 3.215,0.855 2.466,0.084 1.716,-0.688 0.95,-1.074 0.167,-1.074" /></g><g
           transform="translate(182.0864,107.1533)"
           id="g120"><path
             id="path122"
             style="fill:#75b8b8;fill-opacity:1;fill-rule:nonzero;stroke:none"
             d="m 0,0 c -5.561,-5.563 -12.957,-8.625 -20.823,-8.625 -7.865,0 -15.26,3.062 -20.821,8.625 -5.563,5.562 -8.625,12.957 -8.625,20.822 0,7.866 3.062,15.261 8.625,20.822 0.131,0.131 0.267,0.253 0.4,0.381 -0.105,-0.319 -0.218,-0.633 -0.403,-0.908 -0.437,-0.652 -1.168,-0.914 -1.626,-1.526 -0.418,-0.558 -0.753,-1.402 -0.909,-2.028 -0.169,-0.678 -0.066,-1.501 -0.305,-2.177 -0.303,-0.859 -0.852,-1.369 -0.751,-2.365 1.197,-0.354 0.678,1.771 1.686,1.88 0.319,-0.793 0.11,-2.269 0.019,-3.134 -0.125,-1.189 -0.357,-1.484 0.353,-2.505 0.563,-0.809 0.749,-1.35 1.838,-1.478 0.998,-0.117 1.412,-0.569 1.828,-1.531 0.769,-0.164 1.235,-0.291 1.335,-1.144 0.333,-0.185 0.961,-0.787 1.313,-0.88 0.511,-0.133 1.364,0.594 1.845,0.034 0.804,-0.936 -1.019,-3.381 -1.344,-4.223 -0.477,-1.236 -0.548,-3.049 0.622,-3.937 0.601,-0.455 1.24,-0.673 1.436,-1.499 0.181,-0.764 0.04,-1.399 0.378,-2.121 0.528,-1.126 1.736,-1.5 2.597,-2.361 1.128,-1.129 1.051,-2.596 1.051,-4.195 0,-1.676 0.636,-2.948 0.857,-4.482 0.229,-1.582 0.694,-3.048 1.026,-4.576 0.251,-1.15 1.242,-2.89 2.679,-2.656 0.1,0.545 -0.465,0.973 -0.536,1.512 -0.064,0.49 0.073,1 -0.024,1.524 -0.194,1.04 -0.184,1.65 0.505,2.554 0.244,0.319 0.578,0.583 0.83,0.903 0.488,0.62 0.114,0.436 0.093,1.115 -0.025,0.849 0.232,0.432 0.743,0.697 0.266,0.137 0.56,0.552 0.764,0.763 0.447,0.464 1.134,1.02 1.479,1.572 0.388,0.619 0.34,1.482 0.738,2.122 0.456,0.734 1.103,0.735 1.742,1.214 0.826,0.621 0.486,1.273 0.637,2.124 0.252,1.422 0.895,2.991 1.793,4.124 1.127,1.426 1.613,2.638 0.24,4.007 -0.68,0.677 -1.032,0.496 -1.933,0.732 -0.686,0.179 -1.305,0.681 -2.003,0.767 -0.418,0.052 -0.666,-0.099 -1.048,10e-4 -0.356,0.093 -0.314,0.311 -0.689,0.307 -0.561,-0.007 -1.343,-1.175 -1.817,-0.428 -0.263,0.415 0.537,1.565 0.5,2.123 -0.045,0.684 -0.299,1.799 -0.969,2.174 -0.255,0.141 -0.818,0.162 -1.128,0.282 -0.366,0.14 -0.724,0.367 -1.052,0.577 -0.426,0.274 -1.252,0.752 -1.441,1.241 -0.525,0.021 -0.88,0.31 -1.414,0.303 -0.479,-0.006 -0.796,-0.228 -1.314,-0.169 -0.454,0.05 -0.942,0.409 -1.431,0.34 -0.325,-0.045 -0.808,-0.467 -1.09,-0.627 -0.746,-0.421 -1.539,-0.725 -2.363,-0.879 -1.277,-0.239 -1.506,0.249 -1.43,1.43 L -37.528,27 c 0.474,1.318 -0.381,1.41 -1.321,1.73 -0.13,0.938 1.025,1.61 0.541,2.639 -0.976,0.049 -2.041,-2.699 -2.867,-1.509 -0.546,0.786 0.283,2.981 0.762,3.647 0.484,0.671 2.242,1.88 3.071,1.984 0.644,0.081 1.208,-0.202 1.456,-0.768 0.27,-0.616 -0.083,-1.197 -0.004,-1.894 0.823,0.19 0.61,1.237 0.574,1.799 -0.06,0.938 0.431,0.868 0.91,1.544 0.436,0.616 0.504,1.319 1.047,1.915 0.423,0.464 0.921,0.953 1.385,1.38 0.53,0.489 1.127,0.444 1.671,0.803 0.826,0.546 -0.267,1.562 0.951,1.485 0.434,-0.026 0.219,-0.297 0.792,-0.167 0.244,0.056 0.693,0.281 0.948,0.385 1.162,0.472 0.338,0.598 -0.195,1.213 -0.678,0.782 0.282,0.645 0.982,0.763 0.513,0.087 0.405,0.254 0.856,-0.049 0.397,-0.266 0.163,-0.619 0.741,-0.6 1.101,0.037 0.339,1.14 0.093,1.507 -0.419,0.627 -0.527,1.063 -1.413,1.087 0.084,0.281 0.095,0.653 -0.029,0.924 -0.746,-0.098 -0.875,0.445 -1.44,0.659 -0.951,0.359 -0.798,-0.419 -1.188,-0.951 -0.4,-0.548 -1.166,-0.452 -1.46,-1.121 -0.306,-0.696 -0.014,-1.227 -1.132,-1.036 0.152,0.418 0.099,0.954 0.071,1.401 -0.325,0.042 -0.622,0.124 -0.922,0.221 0.001,1.118 1.239,1.212 2.081,1.319 0.942,0.119 1.25,1.078 2.092,1.239 0.786,0.151 1.349,-1.121 2.317,-0.383 0.553,0.419 0.298,0.667 0.096,1.072 -0.055,0.109 -0.333,0.352 -0.407,0.454 -0.009,0.011 -0.012,0.021 -0.019,0.033 0.751,0.145 1.511,0.257 2.276,0.344 0.144,-0.418 0.456,-0.923 0.627,-1.213 0.124,-0.212 0.36,-0.355 0.46,-0.588 0.113,-0.265 -0.154,-0.595 0.181,-0.774 0.518,-0.277 2.026,1.526 2.388,1.818 0.46,0.372 0.747,0.575 0.639,0.935 2.423,-0.073 4.795,-0.437 7.079,-1.077 0.182,-0.227 0.367,-0.462 0.555,-0.721 0.4,-0.558 0.656,-1.06 1.379,-1.309 0.42,-0.143 1.759,-0.117 1.203,-1.075 -0.516,-0.882 -1.084,0.275 -1.342,0.554 -0.359,0.384 -1.422,0.812 -1.389,-0.072 0.049,-1.317 3.016,-1.105 2.379,-2.551 0.356,-0.209 1.057,-0.558 0.942,-1.075 -0.143,-0.64 -0.975,-0.232 -0.959,-1.049 0.025,-1.158 1.287,-2.112 2.463,-1.694 1.25,0.444 0.306,2.181 1.742,2.36 0.564,0.069 0.898,-0.095 1.404,-0.496 0.412,-0.327 0.678,-1.068 1.246,-1.011 0.059,0.353 -0.209,0.605 -0.254,0.93 0.442,-0.11 1.324,-0.66 1.578,-1.043 0.383,-0.579 0.342,-1.415 1.276,-0.667 -0.139,0.115 -0.209,0.372 -0.285,0.463 1.193,-0.004 2.027,-0.496 2.541,-1.532 1.144,-2.315 -1.668,-0.478 -1.807,-1.684 -0.693,0.22 -1.002,0.777 -1.604,1.111 -0.285,0.159 -0.812,0.073 -1.031,0.234 -0.301,0.22 -0.226,0.621 -0.492,0.839 -1.039,0.853 -3.412,-0.525 -4.369,-1.076 -0.258,-0.149 -0.535,-0.165 -0.711,-0.445 -0.305,-0.482 0.123,-0.605 0.027,-1.054 -0.136,-0.641 -0.972,-0.936 -1.224,-1.449 -0.608,-1.233 0.625,-2.998 0.459,-4.367 -0.092,-0.76 -0.91,-1.584 -0.598,-2.22 0.137,-0.274 0.609,-0.507 0.789,-0.83 0.164,-0.293 0.234,-0.677 0.449,-0.981 0.703,-0.986 1.711,-2.082 2.533,-3.002 0.467,-0.523 1.102,-0.669 1.807,-0.524 0.58,0.12 1.463,0.315 2.002,0.573 0.721,0.344 0.815,0.83 1.57,0.502 C 0.045,24.547 0.574,23.78 1.277,24.415 1.857,23.849 1.215,22.863 1.084,22.232 0.918,21.423 1.238,20.722 1.736,20.034 2.332,19.209 2.473,19.064 2.35,17.962 2.256,17.103 2.037,16.318 1.854,15.467 1.676,14.654 1.158,14.036 1.184,13.174 1.211,12.378 1.555,11.738 1.451,10.885 1.357,10.133 1.313,9.238 1.115,8.501 0.914,7.747 0.381,7.08 0.156,6.308 -0.055,5.573 0.004,4.623 0.518,4.02 1.051,3.392 1.584,3.751 2.211,4.226 c 1.236,0.94 1.801,2.532 2.621,3.798 0.84,1.294 1.686,2.474 2.244,3.814 0.117,0.285 0.262,0.565 0.408,0.845 C 6.127,7.937 3.586,3.586 0,0 m 8.143,16.034 c -0.03,0.681 0.246,1.427 0.359,2.125 C 8.426,17.32 8.313,16.491 8.17,15.67 8.158,15.784 8.148,15.904 8.143,16.034 m -28.966,35.73 c -17.088,0 -30.941,-13.853 -30.941,-30.942 0,-17.089 13.853,-30.941 30.941,-30.941 17.091,0 30.942,13.852 30.942,30.941 0,17.089 -13.851,30.942 -30.942,30.942" /></g><g
           transform="translate(182.0864,107.6484)"
           id="g124"><path
             id="path126"
             style="fill:#75b8b8;fill-opacity:1;fill-rule:nonzero;stroke:none"
             d="m 0,0 c -5.561,-5.562 -12.957,-8.624 -20.823,-8.624 -7.865,0 -15.26,3.062 -20.821,8.624 -5.563,5.562 -8.625,12.956 -8.625,20.822 0,7.865 3.062,15.261 8.625,20.822 0.131,0.131 0.267,0.253 0.4,0.381 -0.105,-0.318 -0.218,-0.633 -0.403,-0.908 -0.437,-0.652 -1.168,-0.914 -1.626,-1.526 -0.418,-0.558 -0.753,-1.402 -0.909,-2.028 -0.169,-0.678 -0.066,-1.501 -0.305,-2.177 -0.303,-0.859 -0.852,-1.369 -0.751,-2.365 1.197,-0.355 0.678,1.771 1.686,1.881 0.319,-0.795 0.11,-2.27 0.019,-3.134 -0.125,-1.19 -0.357,-1.485 0.353,-2.506 0.563,-0.809 0.749,-1.35 1.838,-1.478 0.998,-0.117 1.412,-0.569 1.828,-1.531 0.769,-0.164 1.235,-0.291 1.335,-1.144 0.333,-0.185 0.961,-0.787 1.313,-0.88 0.511,-0.133 1.364,0.594 1.845,0.034 0.804,-0.936 -1.019,-3.38 -1.344,-4.224 -0.477,-1.235 -0.548,-3.048 0.622,-3.936 0.601,-0.455 1.24,-0.673 1.436,-1.499 0.181,-0.764 0.04,-1.399 0.378,-2.121 0.528,-1.126 1.736,-1.499 2.597,-2.361 1.128,-1.13 1.051,-2.596 1.051,-4.195 0,-1.675 0.636,-2.949 0.857,-4.482 0.229,-1.582 0.694,-3.048 1.026,-4.576 0.251,-1.151 1.242,-2.89 2.679,-2.655 0.1,0.543 -0.465,0.971 -0.536,1.51 -0.064,0.49 0.073,1.001 -0.024,1.526 -0.194,1.04 -0.184,1.65 0.505,2.553 0.244,0.319 0.578,0.583 0.83,0.903 0.488,0.62 0.114,0.436 0.093,1.116 -0.025,0.848 0.232,0.432 0.743,0.696 0.266,0.137 0.56,0.552 0.764,0.763 0.447,0.465 1.134,1.02 1.479,1.571 0.388,0.62 0.34,1.483 0.738,2.123 0.456,0.734 1.103,0.735 1.742,1.215 0.826,0.62 0.486,1.272 0.637,2.123 0.252,1.423 0.895,2.991 1.793,4.124 1.127,1.426 1.613,2.639 0.24,4.007 -0.68,0.677 -1.032,0.496 -1.933,0.732 -0.686,0.179 -1.305,0.681 -2.003,0.767 -0.418,0.052 -0.666,-0.099 -1.048,0 -0.356,0.094 -0.314,0.312 -0.689,0.308 -0.561,-0.006 -1.343,-1.175 -1.817,-0.428 -0.263,0.416 0.537,1.565 0.5,2.123 -0.045,0.684 -0.299,1.8 -0.969,2.174 -0.255,0.142 -0.818,0.162 -1.128,0.282 -0.366,0.14 -0.724,0.366 -1.052,0.577 -0.426,0.273 -1.252,0.751 -1.441,1.241 -0.525,0.021 -0.88,0.31 -1.414,0.303 -0.479,-0.006 -0.796,-0.228 -1.314,-0.169 -0.454,0.05 -0.942,0.409 -1.431,0.341 -0.325,-0.046 -0.808,-0.468 -1.09,-0.627 -0.746,-0.421 -1.539,-0.726 -2.363,-0.88 -1.277,-0.239 -1.506,0.249 -1.43,1.43 L -37.528,27 c 0.474,1.318 -0.381,1.41 -1.321,1.73 -0.13,0.939 1.025,1.609 0.541,2.639 -0.976,0.05 -2.041,-2.698 -2.867,-1.509 -0.546,0.786 0.283,2.981 0.762,3.647 0.484,0.671 2.242,1.88 3.071,1.984 0.644,0.081 1.208,-0.202 1.456,-0.768 0.27,-0.616 -0.083,-1.196 -0.004,-1.894 0.823,0.19 0.61,1.237 0.574,1.799 -0.06,0.938 0.431,0.868 0.91,1.544 0.436,0.616 0.504,1.319 1.047,1.914 0.423,0.465 0.921,0.954 1.385,1.381 0.53,0.488 1.127,0.444 1.671,0.803 0.826,0.546 -0.267,1.562 0.951,1.485 0.434,-0.027 0.219,-0.297 0.792,-0.167 0.244,0.056 0.693,0.281 0.948,0.385 1.162,0.472 0.338,0.598 -0.195,1.213 -0.678,0.782 0.282,0.645 0.982,0.763 0.513,0.086 0.405,0.254 0.856,-0.049 0.397,-0.265 0.163,-0.62 0.741,-0.6 1.101,0.037 0.339,1.141 0.093,1.507 -0.419,0.627 -0.527,1.063 -1.413,1.087 0.084,0.281 0.095,0.654 -0.029,0.925 -0.746,-0.099 -0.875,0.444 -1.44,0.658 -0.951,0.36 -0.798,-0.42 -1.188,-0.95 -0.4,-0.548 -1.166,-0.453 -1.46,-1.122 -0.306,-0.696 -0.014,-1.227 -1.132,-1.037 0.152,0.419 0.099,0.955 0.071,1.402 -0.325,0.042 -0.622,0.124 -0.922,0.222 0.001,1.117 1.239,1.211 2.081,1.318 0.942,0.119 1.25,1.078 2.092,1.239 0.786,0.151 1.349,-1.121 2.317,-0.384 0.553,0.421 0.298,0.668 0.096,1.073 -0.055,0.109 -0.333,0.352 -0.407,0.453 -0.009,0.012 -0.012,0.022 -0.019,0.034 0.751,0.146 1.511,0.257 2.276,0.344 0.144,-0.418 0.456,-0.923 0.627,-1.213 0.124,-0.212 0.36,-0.354 0.46,-0.588 0.113,-0.265 -0.154,-0.595 0.181,-0.774 0.518,-0.277 2.026,1.526 2.388,1.819 0.46,0.371 0.747,0.575 0.639,0.934 2.423,-0.073 4.795,-0.437 7.079,-1.077 0.182,-0.227 0.367,-0.462 0.555,-0.721 0.4,-0.558 0.656,-1.06 1.379,-1.308 0.42,-0.144 1.759,-0.118 1.203,-1.076 -0.516,-0.882 -1.084,0.275 -1.342,0.554 -0.359,0.384 -1.422,0.813 -1.389,-0.072 0.049,-1.317 3.016,-1.105 2.379,-2.551 0.356,-0.209 1.057,-0.558 0.942,-1.075 -0.143,-0.639 -0.975,-0.232 -0.959,-1.049 0.025,-1.158 1.287,-2.112 2.463,-1.695 1.25,0.445 0.306,2.182 1.742,2.361 0.564,0.07 0.898,-0.096 1.404,-0.497 0.412,-0.326 0.678,-1.067 1.246,-1.01 0.059,0.353 -0.209,0.605 -0.254,0.93 0.442,-0.109 1.324,-0.66 1.578,-1.043 0.383,-0.58 0.342,-1.414 1.276,-0.667 -0.139,0.116 -0.209,0.372 -0.285,0.463 1.193,-0.004 2.027,-0.496 2.541,-1.532 1.144,-2.315 -1.668,-0.478 -1.807,-1.684 -0.693,0.22 -1.002,0.777 -1.604,1.111 -0.285,0.158 -0.812,0.074 -1.031,0.234 -0.301,0.22 -0.226,0.621 -0.492,0.839 -1.039,0.853 -3.412,-0.525 -4.369,-1.076 -0.258,-0.148 -0.535,-0.165 -0.711,-0.445 -0.305,-0.481 0.123,-0.605 0.027,-1.054 -0.136,-0.64 -0.972,-0.935 -1.224,-1.449 -0.608,-1.233 0.625,-2.998 0.459,-4.367 -0.092,-0.761 -0.91,-1.584 -0.598,-2.22 0.137,-0.274 0.609,-0.507 0.789,-0.829 0.164,-0.293 0.234,-0.678 0.449,-0.982 0.703,-0.986 1.711,-2.081 2.533,-3.002 0.467,-0.523 1.102,-0.669 1.807,-0.524 0.58,0.12 1.463,0.314 2.002,0.573 0.721,0.344 0.815,0.83 1.57,0.502 C 0.045,24.547 0.574,23.78 1.277,24.416 1.857,23.849 1.215,22.863 1.084,22.232 0.918,21.423 1.238,20.721 1.736,20.034 2.332,19.209 2.473,19.064 2.35,17.963 2.256,17.104 2.037,16.318 1.854,15.467 1.676,14.654 1.158,14.035 1.184,13.173 1.211,12.378 1.555,11.738 1.451,10.885 1.357,10.134 1.313,9.238 1.115,8.501 0.914,7.747 0.381,7.079 0.156,6.308 -0.055,5.574 0.004,4.623 0.518,4.02 1.051,3.391 1.584,3.751 2.211,4.227 c 1.236,0.939 1.801,2.532 2.621,3.798 0.84,1.293 1.686,2.473 2.244,3.813 0.117,0.285 0.262,0.565 0.408,0.845 C 6.127,7.938 3.586,3.587 0,0 m 8.143,16.034 c -0.03,0.68 0.246,1.427 0.359,2.125 C 8.426,17.321 8.313,16.492 8.17,15.67 8.158,15.784 8.148,15.904 8.143,16.034 m -28.966,35.73 c -17.088,0 -30.941,-13.853 -30.941,-30.942 0,-17.089 13.853,-30.942 30.941,-30.942 17.091,0 30.942,13.853 30.942,30.942 0,17.089 -13.851,30.942 -30.942,30.942" /></g><g
           id="g128"><g
             id="g130" /><g
             id="g278"><g
               id="g276"
               clip-path="url(#clipPath134)"><g
                 id="g138"
                 transform="translate(138.6987,141.0679)"><path
                   id="path136"
                   style="fill:#75b8b8;fill-opacity:1;fill-rule:nonzero;stroke:none"
                   d="m 0,0 c -0.021,-0.595 -0.099,-1.205 -0.146,-1.652 -0.071,-0.679 -0.177,-1.066 -0.123,-1.464 0.026,0.262 0.081,0.563 0.123,0.969 C -0.085,-1.574 0.024,-0.734 0,0" /></g><g
                 id="g142"
                 transform="translate(147.2451,131.0229)"><path
                   id="path140"
                   style="fill:#75b8b8;fill-opacity:1;fill-rule:nonzero;stroke:none"
                   d="m 0,0 c -0.164,-1.126 -1.276,-2.693 -1.524,-3.335 -0.223,-0.577 -0.355,-1.281 -0.315,-1.957 0.03,0.515 0.146,1.024 0.315,1.462 C -1.237,-3.087 0.211,-1.102 0,0" /></g><g
                 id="g146"
                 transform="translate(144.7441,133.6709)"><path
                   id="path144"
                   style="fill:#75b8b8;fill-opacity:1;fill-rule:nonzero;stroke:none"
                   d="m 0,0 c -0.055,-1.107 0.196,-1.562 1.435,-1.33 0.824,0.155 1.618,0.459 2.363,0.88 0.282,0.159 0.765,0.581 1.091,0.627 0.488,0.068 0.977,-0.29 1.43,-0.341 0.518,-0.058 0.835,0.164 1.314,0.169 0.534,0.008 0.889,-0.282 1.414,-0.302 0.189,-0.49 1.015,-0.968 1.442,-1.242 0.327,-0.21 0.685,-0.436 1.051,-0.577 0.311,-0.12 0.874,-0.14 1.128,-0.282 0.594,-0.331 0.861,-1.244 0.945,-1.924 0.019,0.09 0.03,0.173 0.025,0.246 -0.045,0.684 -0.3,1.799 -0.97,2.174 -0.254,0.141 -0.817,0.161 -1.128,0.281 -0.366,0.141 -0.724,0.367 -1.051,0.578 C 10.062,-0.77 9.236,-0.292 9.047,0.197 8.522,0.218 8.167,0.508 7.633,0.501 7.154,0.494 6.837,0.273 6.319,0.331 5.866,0.382 5.377,0.74 4.889,0.672 4.563,0.627 4.08,0.205 3.798,0.045 3.053,-0.375 2.259,-0.68 1.435,-0.834 0.4,-1.028 0.054,-0.744 0,0" /></g><g
                 id="g150"
                 transform="translate(152.1118,148.4121)"><path
                   id="path148"
                   style="fill:#75b8b8;fill-opacity:1;fill-rule:nonzero;stroke:none"
                   d="M 0,0 C 0.014,0.08 0.017,0.162 0.014,0.242 -0.002,0.17 -0.004,0.089 0,0" /></g><g
                 id="g154"
                 transform="translate(151.8062,113.5552)"><path
                   id="path152"
                   style="fill:#75b8b8;fill-opacity:1;fill-rule:nonzero;stroke:none"
                   d="M 0,0 C 0,0.084 0,0.168 0,0.251 -0.001,0.174 -0.001,0.098 -0.001,0.02 -0.001,0.013 0,0.007 0,0" /></g><g
                 id="g158"
                 transform="translate(140.9111,137.0137)"><path
                   id="path156"
                   style="fill:#75b8b8;fill-opacity:1;fill-rule:nonzero;stroke:none"
                   d="M 0,0 C 0.826,-1.19 1.891,1.558 2.868,1.508 2.912,1.416 2.938,1.327 2.957,1.239 3.007,1.476 2.998,1.727 2.868,2.003 1.891,2.054 0.826,-0.694 0,0.495 -0.093,0.629 -0.143,0.805 -0.165,1.005 -0.202,0.597 -0.163,0.235 0,0" /></g><g
                 id="g162"
                 transform="translate(143.2373,135.8833)"><path
                   id="path160"
                   style="fill:#75b8b8;fill-opacity:1;fill-rule:nonzero;stroke:none"
                   d="M 0,0 C 0.667,-0.227 1.288,-0.341 1.425,-0.857 1.607,0.088 0.864,0.206 0.038,0.482 -0.004,0.328 -0.023,0.168 0,0" /></g><g
                 id="g166"
                 transform="translate(155.8315,103.3721)"><path
                   id="path164"
                   style="fill:#75b8b8;fill-opacity:1;fill-rule:nonzero;stroke:none"
                   d="M 0,0 C -0.004,0.033 -0.005,0.066 -0.008,0.1 -0.019,-0.102 -0.025,-0.301 0,-0.494 0.048,-0.863 0.324,-1.18 0.464,-1.516 c 0.025,0.002 0.048,0 0.072,0.006 C 0.636,-0.967 0.071,-0.539 0,0" /></g><g
                 id="g170"
                 transform="translate(144.6494,134.4663)"><path
                   id="path168"
                   style="fill:#75b8b8;fill-opacity:1;fill-rule:nonzero;stroke:none"
                   d="M 0,0 C -0.022,-0.097 -0.05,-0.199 -0.091,-0.313 L 0.09,-0.675 C 0.085,-0.531 0.088,-0.374 0.1,-0.2 Z" /></g><g
                 id="g174"
                 transform="translate(181.186,147.8672)"><path
                   id="path172"
                   style="fill:#75b8b8;fill-opacity:1;fill-rule:nonzero;stroke:none"
                   d="m 0,0 c 0.021,-0.027 0.045,-0.072 0.07,-0.122 0.047,0.031 0.1,0.067 0.155,0.109 C 0.15,-0.008 0.078,0 0,0" /></g><g
                 id="g178"
                 transform="translate(146.7808,142.145)"><path
                   id="path176"
                   style="fill:#75b8b8;fill-opacity:1;fill-rule:nonzero;stroke:none"
                   d="M 0,0 C -0.015,-0.103 -0.02,-0.221 -0.01,-0.364 -0.002,-0.502 0.018,-0.67 0.03,-0.847 0.057,-0.56 0.022,-0.25 0,0" /></g><g
                 id="g182"
                 transform="translate(178.8286,149.0415)"><path
                   id="path180"
                   style="fill:#75b8b8;fill-opacity:1;fill-rule:nonzero;stroke:none"
                   d="m 0,0 c -0.076,0.031 -0.148,0.058 -0.211,0.073 0.022,-0.153 0.092,-0.29 0.154,-0.428 0.034,-0.002 0.065,-0.01 0.1,-0.007 C 0.064,-0.23 0.041,-0.113 0,0" /></g><g
                 id="g186"
                 transform="translate(161.2637,158.917)"><path
                   id="path184"
                   style="fill:#75b8b8;fill-opacity:1;fill-rule:nonzero;stroke:none"
                   d="m 0,0 c 17.006,0 30.807,-13.719 30.94,-30.694 0,0.083 0.002,0.165 0.002,0.248 0,17.088 -13.852,30.942 -30.942,30.942 -17.088,0 -30.941,-13.854 -30.941,-30.942 0,-0.083 0.002,-0.165 0.003,-0.248 C -30.805,-13.719 -17.005,0 0,0" /></g><g
                 id="g190"
                 transform="translate(137.5996,143.0347)"><path
                   id="path188"
                   style="fill:#75b8b8;fill-opacity:1;fill-rule:nonzero;stroke:none"
                   d="m 0,0 c -0.303,-0.859 -0.853,-1.37 -0.751,-2.365 0.004,-10e-4 0.006,-10e-4 0.009,-0.002 0.086,0.695 0.494,1.168 0.742,1.871 C 0.239,0.18 0.136,1.003 0.305,1.682 0.46,2.308 0.796,3.152 1.213,3.709 1.672,4.322 2.402,4.583 2.84,5.235 3.024,5.511 3.138,5.825 3.243,6.144 3.122,6.028 3,5.916 2.88,5.798 2.866,5.776 2.854,5.752 2.84,5.731 2.656,5.456 2.419,5.251 2.173,5.06 1.688,4.542 1.22,4.013 0.776,3.467 0.566,3.033 0.401,2.563 0.305,2.176 0.136,1.499 0.239,0.675 0,0" /></g><g
                 id="g194"
                 transform="translate(154.2793,150.3389)"><path
                   id="path192"
                   style="fill:#75b8b8;fill-opacity:1;fill-rule:nonzero;stroke:none"
                   d="M 0,0 C 0.197,-0.227 0.433,-0.386 0.594,-0.522 1.106,-0.196 0.451,-0.024 0,0.496 -0.034,0.535 -0.062,0.571 -0.088,0.605 -0.276,0.519 -0.307,0.355 0,0" /></g><g
                 id="g198"
                 transform="translate(155.5386,153.0479)"><path
                   id="path196"
                   style="fill:#75b8b8;fill-opacity:1;fill-rule:nonzero;stroke:none"
                   d="m 0,0 c 0.886,-0.025 0.994,-0.461 1.413,-1.087 0.112,-0.167 0.33,-0.488 0.431,-0.791 0.207,0.35 -0.251,1.017 -0.431,1.285 C 1.004,0.019 0.887,0.445 0.062,0.489 0.066,0.319 0.044,0.147 0,0" /></g><g
                 id="g202"
                 transform="translate(151.4214,152.5581)"><path
                   id="path200"
                   style="fill:#75b8b8;fill-opacity:1;fill-rule:nonzero;stroke:none"
                   d="M 0,0 C 0.294,0.669 1.06,0.573 1.46,1.122 1.85,1.653 1.697,2.432 2.648,2.072 3.213,1.858 3.342,1.315 4.088,1.414 4.122,1.341 4.144,1.261 4.159,1.178 4.198,1.422 4.186,1.696 4.088,1.909 3.342,1.811 3.213,2.354 2.648,2.567 1.697,2.927 1.85,2.147 1.46,1.617 1.06,1.069 0.294,1.164 0,0.495 -0.296,-0.179 -0.035,-0.697 -1.039,-0.555 -1.051,-0.724 -1.079,-0.888 -1.132,-1.036 -0.014,-1.227 -0.306,-0.695 0,0" /></g><g
                 id="g206"
                 transform="translate(155.8071,104.4019)"><path
                   id="path204"
                   style="fill:#75b8b8;fill-opacity:1;fill-rule:nonzero;stroke:none"
                   d="M 0,0 C 0.014,-0.072 0.022,-0.145 0.027,-0.219 0.04,0.018 0.045,0.254 0,0.496 -0.045,0.739 -0.077,0.955 -0.095,1.159 -0.124,0.814 -0.083,0.447 0,0" /></g><g
                 id="g210"
                 transform="translate(157.2485,109.3149)"><path
                   id="path208"
                   style="fill:#75b8b8;fill-opacity:1;fill-rule:nonzero;stroke:none"
                   d="M 0,0 C -0.013,-0.082 -0.018,-0.19 -0.013,-0.34 -0.007,-0.522 0.024,-0.643 0.057,-0.732 0.254,-0.414 0.056,-0.416 0,0" /></g><g
                 id="g214"
                 transform="translate(183.5747,131.1919)"><path
                   id="path212"
                   style="fill:#75b8b8;fill-opacity:1;fill-rule:nonzero;stroke:none"
                   d="m 0,0 c -0.08,-0.456 -0.328,-0.944 -0.404,-1.312 -0.047,-0.235 -0.051,-0.46 -0.026,-0.68 0.01,0.062 0.014,0.122 0.026,0.185 C -0.299,-1.3 0.135,-0.563 0,0" /></g><g
                 id="g218"
                 transform="translate(172.0337,151.6445)"><path
                   id="path216"
                   style="fill:#75b8b8;fill-opacity:1;fill-rule:nonzero;stroke:none"
                   d="M 0,0 C 0.027,-0.015 0.055,-0.032 0.084,-0.048 0.078,0.009 0.064,0.063 0.043,0.114 0.031,0.077 0.018,0.039 0,0" /></g><g
                 id="g222"
                 transform="translate(150.3604,152.9233)"><path
                   id="path220"
                   style="fill:#75b8b8;fill-opacity:1;fill-rule:nonzero;stroke:none"
                   d="M 0,0 C 0.008,-0.129 0.018,-0.267 0.025,-0.406 0.045,-0.104 0.018,0.213 0,0.495 -0.291,0.533 -0.559,0.604 -0.828,0.689 -0.886,0.557 -0.922,0.404 -0.922,0.221 -0.622,0.124 -0.325,0.042 0,0" /></g><g
                 id="g226"
                 transform="translate(158.9883,155.3047)"><path
                   id="path224"
                   style="fill:#75b8b8;fill-opacity:1;fill-rule:nonzero;stroke:none"
                   d="M 0,0 C -0.003,0.031 -0.01,0.061 -0.021,0.091 -0.018,0.06 -0.011,0.029 0,0" /></g><g
                 id="g230"
                 transform="translate(190.2563,122.8232)"><path
                   id="path228"
                   style="fill:#75b8b8;fill-opacity:1;fill-rule:nonzero;stroke:none"
                   d="M 0,0 C 0.143,0.821 0.256,1.65 0.332,2.489 0.301,2.294 0.256,2.097 0.211,1.898 0.15,1.428 0.082,0.959 0,0.495 -0.008,0.562 -0.012,0.637 -0.016,0.708 -0.025,0.592 -0.031,0.477 -0.027,0.364 -0.021,0.234 -0.012,0.114 0,0" /></g><g
                 id="g234"
                 transform="translate(146.2837,141.5718)"><path
                   id="path232"
                   style="fill:#75b8b8;fill-opacity:1;fill-rule:nonzero;stroke:none"
                   d="m 0,0 c -0.042,-0.346 -0.132,-0.702 -0.087,-1.095 0.001,0 0.003,10e-4 0.004,0.002 C -0.042,-0.712 0.054,-0.357 0,0" /></g><g
                 id="g238"
                 transform="translate(140.4424,107.1533)"><path
                   id="path236"
                   style="fill:#75b8b8;fill-opacity:1;fill-rule:nonzero;stroke:none"
                   d="m 0,0 c 5.561,-5.563 12.956,-8.625 20.821,-8.625 7.866,0 15.262,3.062 20.823,8.625 3.586,3.586 6.127,7.937 7.484,12.683 -0.146,-0.28 -0.291,-0.56 -0.408,-0.845 C 48.701,11.794 48.681,11.753 48.662,11.709 47.226,7.536 44.857,3.708 41.644,0.495 36.083,-5.066 28.687,-8.129 20.821,-8.129 12.956,-8.129 5.561,-5.066 0,0.495 -5.504,5.998 -8.555,13.297 -8.619,21.069 -8.62,20.987 -8.625,20.904 -8.625,20.822 -8.625,12.957 -5.563,5.562 0,0" /></g><g
                 id="g242"
                 transform="translate(155.6172,156.8452)"><path
                   id="path240"
                   style="fill:#75b8b8;fill-opacity:1;fill-rule:nonzero;stroke:none"
                   d="M 0,0 C 0.074,-0.102 0.353,-0.345 0.407,-0.454 0.464,-0.569 0.525,-0.671 0.572,-0.768 0.749,-0.491 0.563,-0.272 0.407,0.042 0.399,0.058 0.385,0.078 0.368,0.099 0.239,0.076 0.109,0.058 -0.019,0.033 -0.012,0.021 -0.009,0.011 0,0" /></g><g
                 id="g246"
                 transform="translate(174.4243,146.2549)"><path
                   id="path244"
                   style="fill:#75b8b8;fill-opacity:1;fill-rule:nonzero;stroke:none"
                   d="m 0,0 c -0.258,-0.149 -0.535,-0.165 -0.711,-0.446 -0.168,-0.266 -0.113,-0.423 -0.047,-0.586 0.016,0.03 0.026,0.058 0.047,0.091 0.176,0.28 0.453,0.296 0.711,0.446 0.957,0.55 3.33,1.928 4.369,1.075 0.266,-0.217 0.192,-0.618 0.492,-0.838 0.219,-0.161 0.746,-0.076 1.032,-0.235 0.601,-0.334 0.91,-0.891 1.603,-1.111 0.125,1.089 2.432,-0.303 2.033,1.123 C 9.232,-1.023 7.602,-0.197 7.496,-1.108 6.803,-0.888 6.494,-0.331 5.893,0.003 5.607,0.161 5.08,0.076 4.861,0.236 4.561,0.457 4.635,0.858 4.369,1.076 3.33,1.928 0.957,0.55 0,0" /></g><g
                 id="g250"
                 transform="translate(172.0161,149.52)"><path
                   id="path248"
                   style="fill:#75b8b8;fill-opacity:1;fill-rule:nonzero;stroke:none"
                   d="M 0,0 C 0.002,-0.086 0.014,-0.171 0.027,-0.255 0.17,0.24 0.834,-0.01 0.959,0.554 0.988,0.685 0.965,0.804 0.91,0.914 0.684,0.471 -0.014,0.75 0,0" /></g><g
                 id="g254"
                 transform="translate(171.0435,154.2671)"><path
                   id="path252"
                   style="fill:#75b8b8;fill-opacity:1;fill-rule:nonzero;stroke:none"
                   d="m 0,0 c -0.359,0.385 -1.422,0.813 -1.389,-0.071 0.003,-0.078 0.018,-0.15 0.039,-0.217 0.192,0.496 1.037,0.128 1.35,-0.207 0.258,-0.279 0.826,-1.436 1.342,-0.553 0.166,0.286 0.162,0.484 0.062,0.625 C 1.387,-0.465 1.367,-0.507 1.342,-0.553 0.826,-1.436 0.258,-0.278 0,0" /></g><g
                 id="g258"
                 transform="translate(165.3716,126.0928)"><path
                   id="path256"
                   style="fill:#75b8b8;fill-opacity:1;fill-rule:nonzero;stroke:none"
                   d="m 0,0 c -0.68,0.677 -1.032,0.496 -1.934,0.732 -0.685,0.179 -1.304,0.681 -2.002,0.767 -0.418,0.051 -0.666,-0.1 -1.048,0 C -5.34,1.593 -5.298,1.811 -5.673,1.807 -6.234,1.8 -7.017,0.632 -7.49,1.378 -7.493,1.383 -7.494,1.389 -7.497,1.395 -7.552,1.185 -7.566,1.003 -7.49,0.883 c 0.473,-0.746 1.256,0.422 1.817,0.429 0.375,0.003 0.333,-0.214 0.689,-0.308 0.382,-0.1 0.63,0.051 1.048,0 C -3.238,0.918 -2.619,0.416 -1.934,0.237 -1.032,0.001 -0.68,0.181 0,-0.495 0.504,-0.999 0.757,-1.481 0.819,-1.96 0.902,-1.315 0.679,-0.677 0,0" /></g><g
                 id="g262"
                 transform="translate(172.9771,138.979)"><path
                   id="path260"
                   style="fill:#75b8b8;fill-opacity:1;fill-rule:nonzero;stroke:none"
                   d="m 0,0 c 0,-0.013 0,-0.027 -0.002,-0.04 -0.086,-0.725 -0.834,-1.508 -0.631,-2.13 0.129,0.516 0.567,1.092 0.631,1.635 C 0.02,-0.362 0.018,-0.184 0,0" /></g><g
                 id="g266"
                 transform="translate(183.9399,123.1157)"><path
                   id="path264"
                   style="fill:#75b8b8;fill-opacity:1;fill-rule:nonzero;stroke:none"
                   d="m 0,0 c -0.178,-0.813 -0.695,-1.432 -0.67,-2.294 0.004,-0.061 0.01,-0.12 0.016,-0.179 0.084,0.705 0.5,1.267 0.654,1.977 C 0.184,0.355 0.402,1.141 0.496,2 0.535,2.354 0.547,2.608 0.525,2.819 0.52,2.721 0.51,2.614 0.496,2.496 0.402,1.636 0.184,0.851 0,0" /></g><g
                 id="g270"
                 transform="translate(173.7407,144.2607)"><path
                   id="path268"
                   style="fill:#75b8b8;fill-opacity:1;fill-rule:nonzero;stroke:none"
                   d="m 0,0 c 0.033,0.159 0,0.276 -0.041,0.384 -0.203,-0.563 -0.947,-0.857 -1.184,-1.338 -0.16,-0.324 -0.191,-0.685 -0.154,-1.065 0.02,0.199 0.065,0.39 0.154,0.57 C -0.973,-0.936 -0.137,-0.641 0,0" /></g><g
                 id="g274"
                 transform="translate(183.2017,115.6543)"><path
                   id="path272"
                   style="fill:#75b8b8;fill-opacity:1;fill-rule:nonzero;stroke:none"
                   d="M 0,0 C 0.197,0.737 0.242,1.632 0.336,2.384 0.359,2.596 0.359,2.793 0.342,2.983 0.338,2.949 0.338,2.916 0.336,2.879 0.242,2.128 0.197,1.232 0,0.496 c -0.201,-0.755 -0.734,-1.423 -0.959,-2.194 -0.094,-0.325 -0.129,-0.693 -0.102,-1.053 0.018,0.193 0.053,0.382 0.102,0.558 C -0.734,-1.421 -0.201,-0.754 0,0" /></g></g></g></g></g></g></g></svg>