<?xml version="1.0" standalone="no"?>
<!DOCTYPE svg PUBLIC "-//W3C//DTD SVG 20010904//EN"
 "http://www.w3.org/TR/2001/REC-SVG-20010904/DTD/svg10.dtd">
<svg version="1.0" xmlns="http://www.w3.org/2000/svg"
 width="1564.000000pt" height="700.000000pt" viewBox="0 0 1564.000000 700.000000"
 preserveAspectRatio="xMidYMid meet">

<g transform="translate(0.000000,700.000000) scale(0.100000,-0.100000)"
fill="#000000" stroke="none">
<path d="M327 6553 c-4 -3 -7 -1405 -7 -3115 l0 -3108 7454 0 c4100 0 7456 3
7458 8 2 4 2 1405 0 3115 l-2 3107 -7448 0 c-4097 0 -7452 -3 -7455 -7z
m14794 -107 c2 -2 3 -1355 1 -3005 l-2 -3001 -7345 0 -7345 0 0 2998 c0 1649
3 3002 7 3005 7 7 14677 10 14684 3z m-423 -6033 c226 -3 412 -10 412 -14 0
-7 -365 -4 -1195 10 l-430 8 400 1 c220 1 586 -1 813 -5z m462 -13 c12 -8 9
-10 -13 -10 -16 0 -26 4 -22 10 8 12 16 12 35 0z"/>
<path d="M1463 5033 c3 -10 36 -135 75 -278 38 -143 104 -388 146 -545 43
-157 93 -343 112 -415 19 -71 44 -160 56 -198 l20 -67 170 2 170 3 39 150 c21
83 75 294 120 470 44 176 84 324 89 328 4 5 11 4 14 -1 3 -6 49 -178 102 -384
107 -422 142 -549 155 -562 7 -8 329 -10 336 -3 1 1 44 162 97 357 204 759
304 1126 311 1143 7 16 -5 17 -159 17 -196 0 -168 24 -221 -195 -19 -82 -68
-287 -109 -455 -41 -168 -77 -321 -81 -340 -4 -19 -12 -43 -17 -53 -9 -18 -10
-18 -22 0 -7 10 -18 45 -25 78 -7 33 -40 170 -72 305 -33 135 -80 331 -106
435 -25 105 -50 198 -55 208 -8 16 -23 17 -145 15 l-135 -3 -110 -440 c-60
-242 -117 -478 -127 -524 -10 -47 -22 -86 -28 -88 -6 -2 -15 9 -21 24 -9 24
-170 681 -217 888 -9 39 -20 87 -26 108 l-10 37 -166 0 c-153 0 -165 -1 -160
-17z"/>
<path d="M7007 5043 c-4 -3 -7 -345 -7 -760 l0 -753 160 0 160 0 0 305 0 305
343 2 342 3 3 128 3 127 -346 0 -345 0 0 190 0 190 363 2 362 3 3 133 3 132
-519 0 c-285 0 -522 -3 -525 -7z"/>
<path d="M12996 5042 c-6 -10 -3 -1509 4 -1514 3 -2 73 -2 157 0 l151 4 4 377
3 377 25 48 c14 27 42 63 63 80 37 29 44 31 122 31 75 0 86 -2 110 -25 15 -14
37 -43 48 -65 21 -39 22 -55 27 -435 l5 -395 147 2 c81 1 151 4 155 6 5 3 6
202 3 444 l-5 438 -32 67 c-42 90 -99 149 -176 184 -55 25 -73 29 -162 28
-122 0 -181 -20 -273 -94 l-62 -50 0 250 0 250 -154 0 c-85 0 -157 -4 -160 -8z"/>
<path d="M6156 4889 c-3 -34 -6 -95 -6 -135 l0 -74 -90 0 -90 0 0 -121 0 -120
85 2 c47 1 88 -1 91 -4 4 -3 8 -154 11 -334 3 -295 6 -334 24 -389 37 -115
119 -171 267 -183 67 -6 258 -7 315 -2 4 1 6 52 5 114 l-3 112 -112 5 c-132 6
-163 21 -175 86 -4 21 -7 164 -7 317 l-1 277 28 0 c38 1 244 8 260 9 10 1 12
28 10 114 l-3 112 -147 3 -148 3 0 134 0 135 -154 0 -153 0 -7 -61z"/>
<path d="M3915 4684 c-274 -54 -449 -303 -432 -614 10 -178 62 -307 166 -411
117 -116 261 -167 440 -156 175 11 291 57 387 152 53 53 124 163 124 194 0 5
-44 12 -97 15 -54 4 -124 9 -155 12 -55 5 -57 4 -73 -25 -41 -81 -119 -117
-234 -109 -118 9 -184 62 -224 182 -10 27 -17 60 -17 73 l0 23 408 2 407 3 -2
90 c-10 410 -301 648 -698 569z m252 -239 c60 -30 97 -79 120 -158 26 -92 38
-88 -239 -85 -276 3 -263 -2 -228 90 25 69 82 135 134 159 61 28 150 25 213
-6z"/>
<path d="M5166 4689 c-223 -37 -356 -169 -356 -354 0 -189 103 -276 396 -336
214 -44 253 -57 285 -89 34 -33 39 -91 13 -129 -44 -62 -194 -82 -290 -37 -56
26 -87 59 -105 113 l-11 36 -82 -7 c-44 -3 -116 -6 -160 -6 l-79 0 6 -37 c10
-62 67 -161 118 -207 123 -110 325 -155 555 -122 61 8 135 25 165 36 225 87
296 325 148 495 -59 67 -214 124 -423 155 -104 16 -180 49 -200 89 -50 96 36
196 164 193 99 -2 159 -43 201 -136 l21 -49 112 7 c61 4 130 9 153 12 40 6 42
8 37 33 -14 60 -66 155 -115 206 -61 64 -145 109 -247 130 -72 16 -226 18
-306 4z"/>
<path d="M9510 4684 c-273 -59 -444 -306 -427 -619 18 -343 243 -565 571 -565
168 0 327 60 428 161 53 53 129 181 116 195 -3 2 -72 9 -154 14 -134 9 -150 8
-159 -7 -55 -91 -127 -128 -239 -121 -125 8 -193 64 -230 188 -30 99 -71 89
392 92 l407 3 -2 93 c-2 106 -29 215 -75 310 -38 77 -142 178 -223 216 -113
54 -270 69 -405 40z m257 -239 c60 -30 97 -79 120 -158 26 -92 38 -88 -239
-85 l-243 3 3 34 c6 80 76 180 147 212 60 28 149 25 212 -6z"/>
<path d="M10940 4684 c-66 -24 -139 -76 -185 -131 l-40 -48 -5 85 -5 85 -143
3 -143 3 1 -575 c1 -317 4 -577 8 -579 4 -2 75 -2 159 1 l152 4 3 377 3 376
27 52 c41 77 85 107 168 111 83 5 120 -12 154 -71 41 -71 46 -126 46 -497 l0
-350 28 -1 c25 0 240 0 270 1 19 0 17 770 -3 863 -28 133 -88 218 -191 268
-57 28 -77 33 -162 36 -72 2 -109 -1 -142 -13z"/>
<path d="M12100 4684 c-206 -44 -366 -207 -416 -422 -23 -98 -15 -294 16 -382
52 -145 136 -244 267 -313 130 -68 285 -85 435 -47 150 37 255 109 330 224 40
62 85 193 71 206 -4 5 -79 10 -166 12 l-157 3 0 -28 c0 -65 -81 -163 -155
-187 -50 -17 -141 -8 -193 19 -84 43 -131 142 -139 291 -9 179 36 306 131 365
44 27 58 30 125 29 112 0 163 -32 214 -131 10 -18 17 -41 17 -51 0 -11 8 -23
17 -26 9 -4 84 -4 166 0 l149 7 -6 41 c-10 68 -79 196 -137 253 -126 125 -362
182 -569 137z"/>
<path d="M8299 4228 c0 -249 0 -509 0 -578 l0 -125 26 1 c14 0 84 1 155 2
l130 2 0 348 c0 211 4 362 11 385 12 44 59 101 103 125 22 11 65 18 144 22
l113 5 0 130 0 130 -84 -1 c-62 -1 -94 -7 -123 -22 -43 -22 -117 -98 -149
-153 l-20 -34 -5 105 -5 105 -147 3 -148 3 -1 -453z"/>
<path d="M5358 3452 c-182 -158 -386 -399 -601 -708 -75 -108 -73 -107 -138
-93 -56 12 -150 7 -210 -10 -36 -11 -129 -84 -129 -102 0 -5 70 -9 160 -9 88
0 160 -2 160 -4 0 -3 -23 -42 -52 -88 -169 -272 -283 -517 -270 -583 6 -31 75
-111 89 -102 5 3 18 28 28 54 28 76 314 646 338 675 l22 26 154 -18 c84 -10
154 -20 156 -22 1 -2 -4 -43 -11 -93 -35 -242 0 -437 86 -488 36 -22 99 -22
169 0 46 15 69 31 133 95 42 43 79 74 81 70 3 -4 8 -25 12 -47 15 -85 76 -161
151 -185 23 -8 66 -11 113 -7 121 8 247 68 350 167 48 45 61 42 61 -15 0 -41
45 -104 86 -121 92 -38 187 -3 304 115 l80 80 29 -63 c48 -106 111 -133 230
-97 65 20 88 34 190 119 l39 32 17 -51 c19 -57 73 -104 131 -115 37 -7 118 16
174 49 46 27 183 159 227 220 19 26 39 47 44 47 7 0 8 -35 4 -92 -6 -85 -4
-97 17 -138 31 -60 56 -72 145 -67 91 5 155 36 246 117 42 39 68 57 71 48 28
-97 66 -151 130 -186 49 -27 252 -22 327 7 71 27 162 86 211 136 21 21 41 35
45 31 4 -3 0 -29 -9 -56 -20 -61 -11 -75 55 -95 36 -11 49 -11 57 -2 6 7 33
58 60 115 99 205 247 391 358 450 71 38 87 39 103 10 22 -41 4 -138 -64 -339
-50 -148 -63 -197 -54 -206 15 -14 84 -33 101 -27 6 2 26 31 44 64 43 78 174
273 224 332 49 59 95 88 140 88 66 0 74 -41 33 -167 -14 -43 -28 -110 -32
-148 -10 -124 43 -189 157 -189 97 -1 177 49 253 156 36 51 43 57 52 43 52
-89 92 -116 173 -117 79 0 132 30 227 129 100 104 103 100 44 -77 -54 -163
-59 -173 -116 -200 -122 -57 -156 -76 -219 -124 -150 -113 -190 -226 -109
-312 30 -32 37 -34 95 -34 37 0 76 7 97 17 82 39 190 179 273 357 26 56 50
109 53 118 3 9 30 29 59 44 96 48 159 94 229 165 70 72 129 171 129 216 0 40
-22 21 -60 -50 -45 -87 -105 -155 -184 -212 -67 -48 -136 -81 -136 -66 0 5 12
40 26 77 30 79 75 231 104 354 12 47 25 99 29 117 5 18 6 34 3 37 -9 10 -92 7
-112 -4 -28 -15 -56 -71 -73 -144 -8 -36 -26 -85 -40 -108 -38 -65 -153 -177
-203 -200 -52 -23 -98 -17 -115 14 -28 51 1 189 72 350 56 128 56 129 -14 153
l-59 20 -20 -25 c-33 -40 -73 -126 -123 -265 -59 -165 -86 -214 -150 -274 -61
-57 -121 -81 -160 -63 -47 22 -47 19 21 257 51 182 6 285 -124 285 -66 0 -172
-60 -242 -138 l-61 -67 8 45 c4 25 8 81 8 125 0 100 -25 149 -84 165 -101 27
-240 -65 -424 -280 l-38 -45 7 40 c4 22 8 69 8 105 l1 65 -67 0 c-47 0 -72 -5
-83 -15 -8 -9 -31 -78 -50 -154 -20 -76 -45 -156 -56 -178 -41 -80 -175 -189
-283 -231 -73 -28 -192 -29 -228 -2 -38 28 -66 82 -74 142 -7 59 -4 62 86 83
257 58 442 202 464 362 9 62 -8 124 -40 144 -37 25 -149 30 -215 11 -170 -50
-347 -245 -444 -490 -22 -53 -39 -78 -83 -117 -54 -49 -111 -81 -164 -94 -48
-11 -68 20 -68 105 0 202 87 452 337 969 110 226 153 328 153 359 0 23 -33 61
-52 61 -86 -3 -233 -269 -434 -785 -114 -293 -180 -421 -280 -539 -117 -139
-231 -190 -291 -130 -24 24 -25 30 -20 87 13 128 102 299 213 410 91 90 171
122 265 105 63 -11 77 -2 60 40 -23 55 -93 66 -199 33 -200 -62 -362 -227
-486 -495 -47 -100 -86 -146 -179 -208 -115 -76 -197 -17 -149 107 10 28 42
90 70 140 l52 89 -42 38 c-24 20 -47 37 -53 37 -5 0 -59 -68 -120 -150 -121
-166 -224 -271 -310 -315 l-56 -29 -26 29 c-23 27 -25 36 -21 91 11 129 126
342 246 458 93 88 206 130 253 94 36 -28 51 -65 47 -119 -3 -50 -2 -53 22 -54
38 -2 79 16 86 38 23 74 -17 156 -94 191 -58 26 -165 27 -237 2 -123 -42 -270
-164 -362 -300 -22 -33 -61 -100 -86 -150 -56 -112 -129 -184 -247 -246 -38
-19 -60 -23 -142 -24 -87 0 -99 2 -121 23 -29 28 -47 83 -47 149 0 146 129
372 259 455 53 33 93 36 121 8 25 -25 19 -65 -22 -138 -33 -61 -27 -82 23 -82
22 0 36 9 59 42 56 78 61 152 14 215 -31 42 -80 57 -166 51 -99 -8 -179 -51
-269 -145 -60 -63 -80 -95 -141 -221 -78 -163 -119 -221 -187 -263 -56 -36
-94 -37 -126 -4 -27 26 -27 28 -25 195 3 259 154 855 286 1125 19 39 34 74 34
78 0 8 -94 70 -122 80 -12 4 -32 -6 -60 -31z m-74 -243 c-42 -102 -138 -404
-169 -531 -18 -73 -34 -118 -41 -118 -7 0 -25 5 -41 11 -15 6 -71 19 -123 28
-64 12 -94 22 -92 30 5 23 204 334 276 431 79 107 206 241 213 224 2 -7 -8
-41 -23 -75z m3554 -646 c8 -108 -136 -252 -328 -330 -93 -37 -99 -31 -52 57
54 103 93 158 156 221 67 68 128 100 181 97 39 -3 40 -4 43 -45z m1932 -850
c0 -32 -102 -194 -163 -259 -64 -70 -92 -79 -127 -44 -65 65 34 197 225 299
48 26 65 27 65 4z"/>
</g>
</svg>
